<svg width="100" height="100" viewBox="0 0 16.555 31.827" xmlns="http://www.w3.org/2000/svg"><g id="svgGroup" stroke-linecap="round" fill-rule="evenodd" font-size="9pt" stroke="#575757" stroke-width="0.25mm" fill="#000" style="stroke:#575757;stroke-width:0.25mm;fill:#000"><path d="M 9.24 21.327 L 9.135 21.082 Q 8.82 20.837 8.418 20.784 A 1.972 1.972 0 0 1 7.935 20.655 A 2.62 2.62 0 0 1 7.595 20.487 L 7.35 20.522 A 79.724 79.724 0 0 0 7.294 23.422 Q 7.294 23.804 7.298 24.179 A 120.406 120.406 0 0 1 7.303 25.371 A 133.21 133.21 0 0 1 7.28 27.837 L 7.21 28.012 A 15.337 15.337 0 0 1 6.175 28.359 A 14.08 14.08 0 0 1 6.108 28.379 A 10.407 10.407 0 0 0 5.409 28.61 A 12.649 12.649 0 0 0 4.97 28.782 A 14.591 14.591 0 0 1 2.799 28.151 A 16.189 16.189 0 0 1 2.573 28.064 Q 1.365 27.592 0.105 27.242 L 0 27.067 L 0 5.507 L 0.105 5.332 Q 0.735 4.982 1.418 4.824 Q 2.041 4.68 2.139 4.595 A 0.068 0.068 0 0 0 2.152 4.579 L 2.31 4.317 L 2.31 3.442 L 2.31 3.092 Q 2.73 2.777 3.308 2.637 Q 3.885 2.497 4.41 2.322 A 1.37 1.37 0 0 0 4.523 2.053 Q 4.595 1.807 4.55 1.569 Q 4.493 1.271 4.552 0.937 A 2.25 2.25 0 0 1 4.585 0.782 A 1 1 0 0 0 4.561 0.806 Q 4.414 0.964 4.97 0.572 A 4.157 4.157 0 0 1 6 0.126 Q 7.004 -0.15 8.047 0.178 A 4.442 4.442 0 0 1 8.365 0.292 Q 10.08 0.992 11.83 1.447 L 11.97 1.622 L 11.97 4.387 L 12.11 4.597 A 12.825 12.825 0 0 0 12.706 4.809 A 15.282 15.282 0 0 0 13.09 4.929 Q 13.615 5.087 14.105 5.332 L 14.21 5.507 L 14.21 8.132 Q 14.28 8.412 14.56 8.517 Q 15.295 8.692 16.45 9.147 L 16.555 9.287 L 16.555 30.987 A 13.837 13.837 0 0 1 15.45 31.425 Q 14.912 31.611 14.427 31.718 A 6.493 6.493 0 0 1 13.79 31.827 L 13.72 31.827 Q 12.635 31.407 11.515 31.039 Q 10.395 30.672 9.31 30.287 A 71.331 71.331 0 0 1 9.231 26.946 A 69.605 69.605 0 0 1 9.24 25.842 Q 9.275 23.637 9.24 21.327 Z M 8.96 15.832 L 9.17 15.797 Q 9.1 13.977 9.17 12.279 Q 9.24 10.582 9.065 8.797 Q 8.68 8.657 8.278 8.499 Q 7.875 8.342 7.525 8.237 L 7.35 8.342 L 7.35 15.097 A 0.717 0.717 0 0 0 7.435 15.23 Q 7.518 15.332 7.63 15.377 A 2.743 2.743 0 0 1 8.105 15.506 A 2.354 2.354 0 0 1 8.33 15.604 A 2.829 2.829 0 0 0 8.798 15.79 A 2.499 2.499 0 0 0 8.96 15.832 Z M 11.305 21.257 L 11.48 21.152 L 11.48 18.912 L 11.235 18.667 Q 10.815 18.597 10.413 18.422 A 2.323 2.323 0 0 0 10.07 18.302 Q 9.874 18.251 9.691 18.247 A 1.414 1.414 0 0 0 9.66 18.247 L 9.66 20.487 L 9.835 20.697 A 4.389 4.389 0 0 0 10.333 20.889 A 3.711 3.711 0 0 0 10.587 20.959 Q 10.955 21.047 11.305 21.257 Z M 8.96 20.487 L 9.17 20.347 Q 9.135 19.752 9.17 19.174 A 6.331 6.331 0 0 0 9.182 18.791 A 6.077 6.077 0 0 0 9.135 18.037 Q 8.19 17.582 7.35 17.477 L 7.35 19.717 L 7.525 19.927 Q 7.875 20.102 8.26 20.189 Q 8.645 20.277 8.96 20.487 Z M 4.375 28.187 L 4.55 28.082 L 4.55 25.842 L 4.34 25.562 Q 3.885 25.527 3.483 25.352 Q 3.171 25.216 2.912 25.186 A 1.252 1.252 0 0 0 2.765 25.177 L 2.765 27.417 L 2.905 27.627 Q 3.872 27.939 4.238 28.114 A 1.398 1.398 0 0 1 4.375 28.187 Z M 2.065 21.257 L 2.24 21.152 L 2.24 18.912 Q 2.139 18.71 2.006 18.67 A 0.235 0.235 0 0 0 1.995 18.667 Q 1.575 18.597 1.173 18.422 Q 0.861 18.286 0.602 18.256 A 1.252 1.252 0 0 0 0.455 18.247 L 0.455 20.487 L 0.595 20.697 A 4.389 4.389 0 0 0 1.093 20.889 A 3.711 3.711 0 0 0 1.347 20.959 Q 1.715 21.047 2.065 21.257 Z M 9.03 8.202 L 9.17 8.027 A 5.673 5.673 0 0 1 9.137 7.566 Q 9.127 7.231 9.162 6.922 A 4.036 4.036 0 0 1 9.17 6.854 Q 9.221 6.457 9.141 6.013 A 3.674 3.674 0 0 0 9.065 5.682 Q 8.68 5.507 8.278 5.437 Q 7.875 5.367 7.525 5.157 L 7.35 5.262 L 7.35 7.467 Q 7.735 7.782 8.19 7.887 Q 8.645 7.992 9.03 8.202 Z M 11.305 12.017 L 11.48 11.912 L 11.48 9.812 L 11.305 9.532 A 15.391 15.391 0 0 1 10.872 9.392 A 11.56 11.56 0 0 1 10.483 9.252 Q 10.139 9.121 9.873 8.99 A 5.133 5.133 0 0 1 9.835 8.972 L 9.66 9.077 L 9.66 11.282 L 9.835 11.527 Q 10.22 11.562 10.588 11.737 A 5.307 5.307 0 0 0 11.085 11.944 A 4.518 4.518 0 0 0 11.305 12.017 Z M 11.305 15.097 L 11.48 14.992 L 11.48 12.787 L 11.235 12.507 Q 10.815 12.472 10.413 12.297 A 2.323 2.323 0 0 0 10.07 12.177 Q 9.874 12.126 9.691 12.122 A 1.414 1.414 0 0 0 9.66 12.122 L 9.66 14.327 L 9.835 14.537 A 5.685 5.685 0 0 0 10.356 14.744 A 4.889 4.889 0 0 0 10.587 14.817 Q 10.955 14.922 11.305 15.097 Z M 2.065 12.017 L 2.24 11.912 A 5.613 5.613 0 0 1 2.206 11.374 Q 2.201 11.037 2.24 10.722 A 3.038 3.038 0 0 0 2.263 10.344 Q 2.263 9.963 2.17 9.567 A 32.511 32.511 0 0 1 1.56 9.357 A 28.914 28.914 0 0 1 1.365 9.287 Q 0.98 9.147 0.595 8.972 L 0.455 9.077 Q 0.49 9.707 0.455 10.284 A 6.331 6.331 0 0 0 0.443 10.667 A 6.077 6.077 0 0 0 0.49 11.422 A 5.409 5.409 0 0 0 0.976 11.599 A 4.371 4.371 0 0 0 1.295 11.684 A 2.266 2.266 0 0 1 1.794 11.864 A 2.851 2.851 0 0 1 2.065 12.017 Z M 11.305 30.427 L 11.48 30.357 Q 11.375 29.762 11.445 29.149 Q 11.515 28.537 11.34 27.942 A 3.398 3.398 0 0 1 10.802 27.796 A 4.059 4.059 0 0 1 10.552 27.697 Q 10.179 27.534 9.941 27.462 A 2.425 2.425 0 0 0 9.905 27.452 L 9.66 27.487 L 9.66 29.727 L 9.835 29.937 A 4.389 4.389 0 0 0 10.333 30.129 A 3.711 3.711 0 0 0 10.587 30.199 Q 10.955 30.287 11.305 30.427 Z M 13.545 25.072 L 13.79 25.002 Q 13.685 24.407 13.755 23.777 A 3.732 3.732 0 0 0 13.778 23.364 A 3.195 3.195 0 0 0 13.685 22.587 A 4.064 4.064 0 0 1 13.167 22.441 A 3.234 3.234 0 0 1 12.81 22.289 Q 12.425 22.097 12.005 22.097 L 12.005 24.407 A 1.441 1.441 0 0 0 12.74 24.757 A 2.124 2.124 0 0 1 13.473 25.027 A 2.455 2.455 0 0 1 13.545 25.072 Z M 11.305 8.902 L 11.48 8.867 Q 11.375 8.237 11.445 7.624 Q 11.515 7.012 11.34 6.417 A 4.09 4.09 0 0 1 10.756 6.264 A 4.77 4.77 0 0 1 10.552 6.189 A 37.897 37.897 0 0 1 10.361 6.114 Q 10.089 6.005 9.905 5.927 L 9.66 5.997 L 9.66 8.202 L 9.835 8.412 A 4.389 4.389 0 0 0 10.333 8.604 A 3.711 3.711 0 0 0 10.587 8.674 Q 10.955 8.762 11.305 8.902 Z M 2.1 15.097 L 2.24 14.957 A 5.613 5.613 0 0 1 2.206 14.419 Q 2.201 14.082 2.24 13.767 A 3.038 3.038 0 0 0 2.263 13.389 Q 2.263 13.008 2.17 12.612 A 3.472 3.472 0 0 0 1.759 12.437 A 2.633 2.633 0 0 0 1.365 12.332 Q 0.98 12.262 0.595 12.052 L 0.455 12.157 L 0.455 14.397 Q 0.805 14.677 1.26 14.799 A 5.74 5.74 0 0 1 1.853 14.992 A 4.886 4.886 0 0 1 2.1 15.097 Z M 11.305 27.417 L 11.48 27.277 A 3.788 3.788 0 0 1 11.423 26.617 A 4.107 4.107 0 0 1 11.463 26.052 A 2.373 2.373 0 0 0 11.486 25.725 A 2.131 2.131 0 0 0 11.305 24.862 A 3.567 3.567 0 0 0 10.831 24.684 A 2.973 2.973 0 0 0 10.552 24.617 Q 10.185 24.547 9.835 24.372 L 9.66 24.477 Q 9.73 25.072 9.678 25.667 Q 9.629 26.212 9.714 26.699 A 3.44 3.44 0 0 0 9.73 26.787 A 4.907 4.907 0 0 0 10.185 26.987 A 3.841 3.841 0 0 0 10.535 27.102 A 3.445 3.445 0 0 1 11.113 27.318 A 4.001 4.001 0 0 1 11.305 27.417 Z M 11.305 24.302 L 11.48 24.197 L 11.48 22.097 L 11.305 21.782 Q 10.92 21.677 10.553 21.537 Q 10.185 21.397 9.835 21.327 L 9.66 21.362 L 9.66 23.567 L 9.835 23.812 Q 10.22 23.917 10.588 24.022 Q 10.955 24.127 11.305 24.302 Z M 13.545 31.197 L 13.79 31.127 Q 13.685 30.532 13.755 29.919 Q 13.825 29.307 13.685 28.712 A 2.778 2.778 0 0 1 13.14 28.579 A 2.325 2.325 0 0 1 12.81 28.432 Q 12.425 28.222 12.005 28.222 Q 12.075 28.852 12.005 29.517 Q 11.935 30.182 12.11 30.637 A 1.626 1.626 0 0 0 12.515 30.846 A 1.406 1.406 0 0 0 12.845 30.917 Q 13.23 30.952 13.545 31.197 Z M 8.96 5.087 L 9.17 4.982 Q 9.1 4.387 9.17 3.827 Q 9.231 3.342 9.107 2.83 A 3.308 3.308 0 0 0 9.065 2.672 Q 8.68 2.497 8.278 2.357 A 6.541 6.541 0 0 1 7.703 2.127 A 5.762 5.762 0 0 1 7.525 2.042 L 7.35 2.147 Q 7.385 2.777 7.35 3.372 A 4.992 4.992 0 0 0 7.341 3.665 Q 7.341 4.017 7.393 4.343 A 3.861 3.861 0 0 0 7.42 4.492 Q 7.81 4.687 8.156 4.761 A 2.241 2.241 0 0 0 8.208 4.772 A 1.899 1.899 0 0 1 8.624 4.904 A 2.583 2.583 0 0 1 8.96 5.087 Z M 4.375 12.787 L 4.55 12.682 A 6.784 6.784 0 0 1 4.503 11.888 A 6.753 6.753 0 0 1 4.515 11.492 A 6.623 6.623 0 0 0 4.527 11.103 Q 4.527 10.793 4.496 10.504 A 5.051 5.051 0 0 0 4.48 10.372 A 4.907 4.907 0 0 0 4.025 10.171 A 3.841 3.841 0 0 0 3.675 10.057 A 3.445 3.445 0 0 1 3.097 9.84 A 4.001 4.001 0 0 1 2.905 9.742 L 2.765 9.847 L 2.765 12.052 L 2.905 12.297 Q 3.29 12.332 3.658 12.507 A 5.307 5.307 0 0 0 4.155 12.714 A 4.518 4.518 0 0 0 4.375 12.787 Z M 11.305 18.142 L 11.48 18.037 L 11.48 15.937 L 11.305 15.657 Q 10.92 15.552 10.553 15.394 A 3.855 3.855 0 0 0 10.078 15.225 A 3.258 3.258 0 0 0 9.835 15.167 L 9.66 15.202 L 9.66 17.442 Q 9.771 17.608 9.903 17.686 A 0.519 0.519 0 0 0 9.975 17.722 Q 10.325 17.757 10.64 17.897 A 5.561 5.561 0 0 0 11.261 18.128 A 6.087 6.087 0 0 0 11.305 18.142 Z M 2.065 27.417 L 2.24 27.277 Q 2.205 26.682 2.24 26.087 A 6.623 6.623 0 0 0 2.252 25.698 Q 2.252 25.388 2.221 25.099 A 5.051 5.051 0 0 0 2.205 24.967 A 15.864 15.864 0 0 0 1.805 24.798 Q 1.606 24.717 1.43 24.653 A 8.058 8.058 0 0 0 1.225 24.582 Q 0.835 24.452 0.506 24.412 A 2.602 2.602 0 0 0 0.455 24.407 L 0.455 26.612 L 0.595 26.822 A 5.685 5.685 0 0 0 1.116 27.029 A 4.889 4.889 0 0 0 1.347 27.102 A 2.958 2.958 0 0 1 1.999 27.378 A 3.321 3.321 0 0 1 2.065 27.417 Z M 4.375 22.027 L 4.55 21.922 L 4.55 19.717 L 4.34 19.437 Q 3.885 19.402 3.483 19.227 Q 3.171 19.091 2.912 19.061 A 1.252 1.252 0 0 0 2.765 19.052 L 2.765 21.257 L 2.905 21.467 A 4.389 4.389 0 0 0 3.403 21.659 A 3.711 3.711 0 0 0 3.657 21.729 Q 4.025 21.817 4.375 22.027 Z M 4.375 15.832 L 4.55 15.797 Q 4.445 15.167 4.515 14.554 Q 4.585 13.942 4.41 13.347 Q 4.06 13.242 3.64 13.084 Q 3.22 12.927 2.975 12.857 L 2.765 12.892 L 2.765 15.097 L 2.905 15.342 A 4.389 4.389 0 0 0 3.403 15.534 A 3.711 3.711 0 0 0 3.657 15.604 Q 4.025 15.692 4.375 15.832 Z M 4.375 9.707 L 4.55 9.637 Q 4.445 9.007 4.515 8.394 Q 4.585 7.782 4.41 7.187 Q 3.955 7.117 3.57 6.942 Q 3.185 6.767 2.765 6.767 L 2.765 8.972 L 2.905 9.217 Q 3.29 9.357 3.658 9.427 A 2.129 2.129 0 0 1 4.243 9.633 A 2.486 2.486 0 0 1 4.375 9.707 Z M 4.375 18.912 L 4.55 18.807 A 3.788 3.788 0 0 1 4.493 18.147 A 4.107 4.107 0 0 1 4.533 17.582 A 2.373 2.373 0 0 0 4.556 17.255 A 2.131 2.131 0 0 0 4.375 16.392 Q 3.99 16.357 3.623 16.182 A 5.307 5.307 0 0 0 3.125 15.974 A 4.518 4.518 0 0 0 2.905 15.902 L 2.765 16.007 L 2.765 18.212 L 2.905 18.422 Q 3.29 18.492 3.658 18.649 A 6.975 6.975 0 0 0 4.199 18.856 A 6.098 6.098 0 0 0 4.375 18.912 Z M 13.615 22.027 L 13.79 21.922 L 13.79 19.717 L 13.615 19.472 A 21.491 21.491 0 0 0 13.184 19.327 Q 12.717 19.177 12.376 19.095 A 5.364 5.364 0 0 0 12.18 19.052 L 12.005 19.087 Q 12.04 19.717 12.005 20.294 A 4.754 4.754 0 0 0 11.996 20.582 A 4.602 4.602 0 0 0 12.075 21.432 A 5.137 5.137 0 0 0 12.797 21.698 A 4.733 4.733 0 0 0 12.845 21.712 A 3.445 3.445 0 0 1 13.423 21.928 A 4.001 4.001 0 0 1 13.615 22.027 Z M 4.375 6.627 L 4.55 6.522 A 3.758 3.758 0 0 1 4.493 5.867 A 3.907 3.907 0 0 1 4.533 5.314 A 2.268 2.268 0 0 0 4.556 4.993 Q 4.556 4.545 4.375 4.107 A 4.473 4.473 0 0 1 3.095 3.685 A 4.188 4.188 0 0 1 2.905 3.582 L 2.765 3.722 Q 2.8 4.317 2.765 4.912 Q 2.735 5.423 2.808 5.883 A 3.861 3.861 0 0 0 2.835 6.032 Q 3.22 6.207 3.605 6.347 L 4.375 6.627 Z M 13.615 28.187 L 13.79 28.082 A 4.174 4.174 0 0 1 13.733 27.394 A 4.158 4.158 0 0 1 13.773 26.822 Q 13.86 26.192 13.615 25.597 Q 13.23 25.492 12.863 25.369 Q 12.495 25.247 12.18 25.177 L 12.005 25.247 Q 12.04 25.877 12.005 26.454 A 4.719 4.719 0 0 0 11.996 26.74 A 4.157 4.157 0 0 0 12.075 27.557 Q 12.46 27.732 12.845 27.872 Q 13.23 28.012 13.615 28.187 Z M 2.065 18.142 L 2.24 17.967 L 2.24 15.902 L 2.1 15.657 A 11.387 11.387 0 0 0 1.44 15.439 A 10.26 10.26 0 0 0 1.347 15.412 A 5.449 5.449 0 0 1 0.867 15.251 A 4.67 4.67 0 0 1 0.665 15.167 L 0.455 15.202 Q 0.49 15.832 0.455 16.427 A 6.623 6.623 0 0 0 0.443 16.816 Q 0.443 17.125 0.474 17.414 A 5.051 5.051 0 0 0 0.49 17.547 L 0.735 17.722 Q 1.295 17.792 2.065 18.142 Z M 13.545 15.832 L 13.79 15.727 A 4.585 4.585 0 0 1 13.731 15.174 Q 13.717 14.845 13.755 14.537 A 3.038 3.038 0 0 0 13.778 14.159 Q 13.778 13.778 13.685 13.382 A 7.252 7.252 0 0 1 13.221 13.233 A 5.48 5.48 0 0 1 12.81 13.067 Q 12.425 12.892 12.005 12.892 L 12.005 15.202 A 1.743 1.743 0 0 0 12.659 15.516 A 2.048 2.048 0 0 0 12.74 15.534 Q 13.16 15.622 13.545 15.832 Z M 2.065 8.902 L 2.24 8.867 Q 2.17 8.237 2.258 7.624 A 2.268 2.268 0 0 0 2.281 7.303 Q 2.281 6.855 2.1 6.417 Q 0.975 6.008 0.481 5.997 A 1.205 1.205 0 0 0 0.455 5.997 L 0.455 8.202 L 0.595 8.412 A 4.389 4.389 0 0 0 1.093 8.604 A 3.711 3.711 0 0 0 1.347 8.674 Q 1.715 8.762 2.065 8.902 Z M 2.065 24.302 L 2.24 24.127 L 2.24 22.027 L 2.1 21.782 A 11.387 11.387 0 0 0 1.44 21.564 A 10.26 10.26 0 0 0 1.347 21.537 Q 0.98 21.432 0.665 21.327 L 0.455 21.362 L 0.455 23.567 A 1.195 1.195 0 0 0 0.524 23.675 Q 0.629 23.82 0.735 23.847 A 2.057 2.057 0 0 1 0.931 23.885 Q 1.037 23.911 1.155 23.95 A 4.303 4.303 0 0 1 1.313 24.004 Q 1.645 24.127 2.065 24.302 Z M 6.65 4.317 L 6.86 4.212 A 4.585 4.585 0 0 1 6.801 3.659 Q 6.787 3.33 6.825 3.022 A 3.007 3.007 0 0 0 6.848 2.648 A 3.068 3.068 0 0 0 6.755 1.902 Q 6.3 1.762 5.898 1.534 A 1.902 1.902 0 0 0 5.549 1.379 A 1.417 1.417 0 0 0 5.11 1.307 L 5.11 3.652 Q 5.425 3.967 5.845 4.037 Q 6.265 4.107 6.65 4.317 Z M 13.615 12.787 L 13.79 12.682 L 13.79 10.582 L 13.615 10.302 A 9.52 9.52 0 0 0 13.147 10.103 A 7.81 7.81 0 0 0 12.88 10.004 Q 12.53 9.882 12.18 9.812 L 12.005 9.847 L 12.005 12.052 L 12.18 12.297 Q 12.53 12.332 12.898 12.507 A 5.307 5.307 0 0 0 13.395 12.714 A 4.518 4.518 0 0 0 13.615 12.787 Z M 13.615 18.912 L 13.79 18.807 L 13.79 16.602 L 13.615 16.392 A 1.978 1.978 0 0 1 12.934 16.2 A 2.286 2.286 0 0 1 12.863 16.164 Q 12.55 16 12.275 15.951 A 1.402 1.402 0 0 0 12.18 15.937 L 12.005 16.007 Q 12.04 16.602 12.005 17.197 A 4.992 4.992 0 0 0 11.996 17.49 Q 11.996 17.842 12.048 18.168 A 3.861 3.861 0 0 0 12.075 18.317 A 3.164 3.164 0 0 0 12.58 18.54 A 2.716 2.716 0 0 0 12.845 18.614 Q 13.23 18.702 13.615 18.912 Z M 4.375 25.072 L 4.55 24.967 L 4.55 22.867 L 4.375 22.587 Q 3.99 22.447 3.623 22.307 Q 3.255 22.167 2.905 22.097 L 2.765 22.132 L 2.765 24.372 A 1.265 1.265 0 0 0 2.861 24.48 Q 2.953 24.571 3.045 24.617 Q 3.395 24.687 3.71 24.827 A 5.561 5.561 0 0 0 4.331 25.058 A 6.087 6.087 0 0 0 4.375 25.072 Z M 6.685 19.717 L 6.86 19.577 L 6.86 17.477 L 6.685 17.232 A 8.222 8.222 0 0 0 5.78 16.863 A 6.868 6.868 0 0 0 5.25 16.707 L 5.11 16.777 L 5.11 18.982 L 5.25 19.227 Q 5.635 19.262 6.003 19.419 Q 6.37 19.577 6.685 19.717 Z M 6.685 7.432 L 6.86 7.327 A 4.143 4.143 0 0 1 6.803 6.645 A 3.958 3.958 0 0 1 6.843 6.084 A 2.268 2.268 0 0 0 6.866 5.763 Q 6.866 5.315 6.685 4.877 A 24.166 24.166 0 0 0 6.337 4.755 Q 6.2 4.709 6.077 4.669 A 12.051 12.051 0 0 0 5.845 4.597 A 66.773 66.773 0 0 0 5.597 4.523 Q 5.5 4.494 5.413 4.469 A 32.85 32.85 0 0 0 5.25 4.422 L 5.11 4.492 A 41.237 41.237 0 0 1 5.1 5.407 A 36.172 36.172 0 0 1 5.093 5.699 Q 5.075 6.277 5.145 6.802 A 19.77 19.77 0 0 0 5.706 7.026 A 16.873 16.873 0 0 0 5.95 7.117 Q 6.335 7.257 6.685 7.432 Z M 11.655 5.997 Q 12.04 5.892 12.408 5.734 A 3.855 3.855 0 0 1 12.882 5.565 A 3.258 3.258 0 0 1 13.125 5.507 Q 12.74 5.402 12.373 5.262 Q 12.005 5.122 11.655 5.017 Q 11.34 5.227 10.99 5.314 Q 10.64 5.402 10.325 5.507 Q 10.536 5.567 10.798 5.666 A 9.201 9.201 0 0 1 10.885 5.699 Q 11.102 5.783 11.384 5.892 A 326.746 326.746 0 0 0 11.655 5.997 Z M 9.415 2.147 Q 9.695 1.902 10.063 1.867 A 2.015 2.015 0 0 0 10.753 1.67 A 2.286 2.286 0 0 0 10.78 1.657 A 7.021 7.021 0 0 0 10.377 1.509 A 5.667 5.667 0 0 0 10.115 1.429 Q 9.8 1.342 9.52 1.202 Q 9.135 1.272 8.768 1.412 Q 8.4 1.552 8.085 1.657 A 4.235 4.235 0 0 0 8.447 1.818 A 3.231 3.231 0 0 0 8.75 1.919 A 5.921 5.921 0 0 1 9.147 2.045 A 7.328 7.328 0 0 1 9.415 2.147 Z M 8.365 16.322 L 8.47 16.217 Q 7.805 16.007 7.105 15.919 Q 6.405 15.832 5.81 16.322 A 4 4 0 0 1 6.455 16.507 A 3.691 3.691 0 0 1 6.475 16.514 Q 6.79 16.637 7.14 16.777 A 1.274 1.274 0 0 1 7.712 16.498 A 1.501 1.501 0 0 1 7.718 16.497 Q 8.05 16.427 8.365 16.322 Z M 7.493 1.213 A 3.12 3.12 0 0 0 7.105 1.377 A 7.328 7.328 0 0 0 6.837 1.275 A 5.921 5.921 0 0 0 6.44 1.149 A 3.231 3.231 0 0 1 6.137 1.048 A 4.235 4.235 0 0 1 5.775 0.887 Q 6.716 0.429 7.712 0.636 A 3.67 3.67 0 0 1 8.47 0.887 A 3.256 3.256 0 0 1 8.21 1.003 A 2.621 2.621 0 0 1 7.788 1.132 A 2.524 2.524 0 0 0 7.493 1.213 Z M 15.295 9.392 L 15.365 9.287 Q 14.7 9.112 14 9.024 A 1.797 1.797 0 0 0 13.777 9.01 Q 13.204 9.01 12.705 9.392 A 3.308 3.308 0 0 1 13.154 9.505 A 2.739 2.739 0 0 1 13.405 9.602 Q 13.72 9.742 14.035 9.847 Q 14.315 9.637 14.648 9.567 Q 14.98 9.497 15.295 9.392 Z M 9.17 16.882 L 9.03 16.637 Q 8.75 16.777 8.523 16.864 Q 8.295 16.952 8.085 17.057 A 1.479 1.479 0 0 1 8.533 17.193 A 1.406 1.406 0 0 1 8.54 17.197 A 3.225 3.225 0 0 0 8.934 17.363 A 2.964 2.964 0 0 0 8.96 17.372 A 0.687 0.687 0 0 0 8.999 17.38 Q 9.23 17.424 9.19 17.224 A 0.402 0.402 0 0 0 9.187 17.214 A 1.59 1.59 0 0 1 9.171 17.133 Q 9.143 16.976 9.167 16.891 A 0.212 0.212 0 0 1 9.17 16.882 Z M 2.065 5.857 L 2.24 5.752 A 40.167 40.167 0 0 1 2.205 5.463 A 47.807 47.807 0 0 1 2.17 5.157 A 1.838 1.838 0 0 1 2.002 5.251 Q 1.824 5.337 1.68 5.349 Q 1.47 5.367 1.26 5.437 L 1.155 5.542 Q 1.206 5.535 1.255 5.535 A 0.634 0.634 0 0 1 1.645 5.664 A 1.178 1.178 0 0 0 1.829 5.779 A 0.845 0.845 0 0 0 2.065 5.857 Z M 4.375 3.547 L 4.55 3.442 L 4.55 2.952 Q 3.941 2.952 3.653 3.132 A 0.58 0.58 0 0 0 3.5 3.267 Q 3.71 3.267 3.938 3.372 A 4.578 4.578 0 0 0 4.215 3.489 A 3.8 3.8 0 0 0 4.375 3.547 Z" vector-effect="non-scaling-stroke"/></g></svg>