<?xml version="1.0" standalone="no"?>
<!DOCTYPE svg PUBLIC "-//W3C//DTD SVG 20010904//EN"
 "http://www.w3.org/TR/2001/REC-SVG-20010904/DTD/svg10.dtd">
<svg version="1.0" xmlns="http://www.w3.org/2000/svg"
 width="512.000000pt" height="512.000000pt" viewBox="0 0 512.000000 512.000000"
 preserveAspectRatio="xMidYMid meet">

<g transform="translate(0.000000,512.000000) scale(0.100000,-0.100000)"
fill="#000000" stroke="none">
<path d="M1125 3973 c-315 -40 -549 -144 -734 -325 -245 -241 -370 -580 -388
-1053 -14 -397 62 -725 226 -975 95 -144 286 -303 445 -369 308 -128 721 -148
1082 -51 185 49 378 141 465 222 l37 33 -91 245 c-50 135 -92 247 -93 248 -1
2 -38 -25 -81 -60 -209 -170 -410 -253 -638 -265 -131 -6 -220 10 -317 57
-217 106 -365 339 -407 644 -16 113 -13 352 5 474 67 454 325 712 711 712 243
0 434 -83 563 -245 117 -147 169 -271 340 -801 67 -207 137 -415 157 -463 155
-378 397 -620 752 -750 186 -69 377 -100 657 -108 660 -18 1067 135 1233 464
48 97 66 188 65 348 0 174 -15 246 -74 370 -51 105 -114 182 -202 249 -150
112 -300 170 -624 240 -359 79 -410 96 -483 162 -71 64 -86 102 -86 224 0 122
15 160 85 224 76 69 169 96 330 96 264 0 394 -86 440 -292 7 -32 18 -58 24
-58 18 0 529 60 552 65 19 4 20 8 12 67 -59 448 -398 678 -997 678 -483 0
-825 -161 -966 -455 -65 -135 -91 -303 -75 -474 18 -194 71 -313 190 -431 151
-151 234 -184 816 -324 331 -79 449 -168 462 -346 6 -88 -11 -143 -60 -196
-89 -97 -242 -137 -528 -137 -149 0 -203 4 -280 20 -194 42 -316 107 -445 237
-98 100 -160 195 -218 336 -19 47 -96 269 -171 495 -110 331 -150 438 -210
560 -103 211 -200 339 -340 451 -229 183 -528 266 -946 263 -91 -1 -178 -4
-195 -6z"/>
</g>
</svg>
